# xmcd CD database file
#
# Track frame offsets:
#	182
#	15382
#	30487
#	49537
#	66682
#	81160
#	98442
#	117102
#	132705
#	147782
#	163607
#	183182
#	199160
#
# Disc length: 2747 seconds
#
# Revision: 8
# Processed by: cddbd v1.5.2PL0 Copyright (c) Steve Scherf et al.
# Submitted via: CDex 1.79
#
DISCID=a90ab90d
DTITLE=The Bellamy Brothers - Nobody's Perfect
DYEAR=1994
DGENRE=Country
TTITLE0=Nobody's Perfect
TTITLE1=On A Summernight
TTITLE2=Hemingway Hideaway
TTITLE3=Blue Water Bay
TTITLE4=One Way Love
TTITLE5=My Heart Is Crying
TTITLE6=Hollywood Heartache
TTITLE7=Cowboy Beat
TTITLE8=Can I Come On Home To You
TTITLE9=Rip Off The Knob
TTITLE10=She Don't Know That She's Perfect
TTITLE11=Crazy From The Heart
TTITLE12=Nobody's Perfect (special reprise)
EXTD=YEAR: 1994
EXTT0=
EXTT1=
EXTT2=
EXTT3=
EXTT4=
EXTT5=
EXTT6=
EXTT7=
EXTT8=
EXTT9=
EXTT10=
EXTT11=
EXTT12=
PLAYORDER=
